<svg width="19" height="19" viewBox="0 0 19 19" fill="none" xmlns="http://www.w3.org/2000/svg">
<path d="M2.64378 13.6184C2.4687 13.6184 2.29396 13.5517 2.16026 13.418C1.89319 13.151 1.89319 12.7181 2.16026 12.451L12.8477 1.76359C13.1144 1.49653 13.5476 1.49653 13.8147 1.76359C14.0818 2.03066 14.0818 2.46357 13.8147 2.73064L3.1273 13.418C2.99394 13.5514 2.81886 13.6184 2.64378 13.6184Z" fill="#BCBCBC"/>
<path d="M1.58791 18.5437C1.54038 18.5437 1.49216 18.5385 1.44395 18.5283C1.07464 18.4489 0.839375 18.0854 0.918708 17.7161L1.97534 12.791C2.05468 12.4217 2.41988 12.1871 2.78748 12.2657C3.15679 12.3451 3.39206 12.7086 3.31272 13.0779L2.25609 18.003C2.18735 18.3241 1.90353 18.5437 1.58791 18.5437Z" fill="#BCBCBC"/>
<path d="M6.51195 17.487C6.33687 17.487 6.16213 17.4203 6.02842 17.2866C5.76136 17.0195 5.76136 16.5866 6.02842 16.3196L16.7158 5.6325C16.9826 5.36544 17.4158 5.36544 17.6829 5.6325C17.9499 5.89957 17.9499 6.33248 17.6829 6.59955L6.99581 17.2866C6.86211 17.4203 6.68703 17.487 6.51195 17.487Z" fill="#BCBCBC"/>
<path d="M1.58629 18.5437C1.27067 18.5437 0.987193 18.3242 0.918118 18.0031C0.839127 17.6338 1.07405 17.2703 1.44336 17.1909L6.36851 16.1343C6.73816 16.056 7.10166 16.2906 7.18065 16.6595C7.25964 17.0288 7.02472 17.3923 6.65541 17.4717L1.73026 18.5283C1.68204 18.5389 1.63383 18.5437 1.58629 18.5437Z" fill="#BCBCBC"/>
<path d="M15.2652 8.734C15.0901 8.734 14.9151 8.66732 14.7817 8.53362L10.9132 4.6651C10.6461 4.39803 10.6461 3.96512 10.9132 3.69806C11.1799 3.43099 11.6135 3.43099 11.8802 3.69806L15.7488 7.56657C16.0158 7.83364 16.0158 8.26655 15.7488 8.53362C15.6154 8.66732 15.4403 8.734 15.2652 8.734Z" fill="#BCBCBC"/>
<path d="M17.1995 6.79993C17.0244 6.79993 16.8493 6.73325 16.7156 6.59954C16.4486 6.33248 16.4486 5.89956 16.7156 5.63216C17.0962 5.25156 17.3059 4.73624 17.3059 4.18159C17.3059 3.62694 17.0962 3.11162 16.7156 2.73103C16.3347 2.35009 15.8194 2.14047 15.2647 2.14047C14.7101 2.14047 14.1948 2.35009 13.8142 2.73103C13.5474 2.99809 13.1145 2.99843 12.8468 2.73103C12.5797 2.46396 12.5797 2.03105 12.8468 1.76364C13.4856 1.12453 14.3442 0.772659 15.2647 0.772659C16.1849 0.772659 17.0439 1.12453 17.6827 1.76364C18.3218 2.40241 18.6737 3.26105 18.6737 4.18159C18.6737 5.10213 18.3218 5.96077 17.6827 6.59954C17.5497 6.7329 17.3746 6.79993 17.1995 6.79993Z" fill="#BCBCBC"/>
</svg>
